<svg viewBox="0 0 14.6664 14.6667" fill="none" xmlns="http://www.w3.org/2000/svg">
<g id="Group">
<path id="Vector" d="M3.33333 1V0H6.66667V3.33333H5.66667V1.70667L1.70667 5.66667H3.33333V6.66667H0V3.33333H1V4.96L4.96 1H3.33333ZM14.6533 10.5467L14.2333 13.52C14.14 14.18 13.5733 14.6667 12.9133 14.6667H8.80667C8.45333 14.6667 7.94667 14.5267 7.7 14.2733L4.66667 11.08L5.22 10.52C5.38 10.36 5.60667 10.2867 5.83333 10.3333L8 10.8267V3.66667C8 3.11333 8.44667 2.66667 9 2.66667C9.55333 2.66667 10 3.11333 10 3.66667V7.66667H10.6067C10.8133 7.66667 11.02 7.71333 11.2 7.80667L13.9267 9.16667C14.44 9.42667 14.7333 9.98 14.6533 10.5467Z" fill="var(--fill-0, #ADADAD)"/>
</g>
</svg>
