<svg viewBox="0 0 15.7036 13.4019" fill="none" xmlns="http://www.w3.org/2000/svg">
<g id="Group">
<path id="Vector" d="M0.666667 1H2.01333C0.753333 2.54667 0 4.52 0 6.66667C0 8.81333 0.753333 10.7867 2.01333 12.3333H0.666667V13.3333H4V10H3V11.94C1.76 10.5333 1 8.68667 1 6.66667C1 4.64667 1.76 2.80667 3 1.39333V3.33333H4V0H0.666667V1ZM9.23333 6.41333L7.44667 2.83333C7.2 2.34 6.6 2.14 6.10667 2.38667C5.60667 2.64 5.40667 3.24 5.65333 3.73333L8.86 10.1333L6.7 10.6667C6.48 10.7267 6.30667 10.8867 6.23333 11.1067L6 11.8533L10.1267 13.3533C10.46 13.4667 10.98 13.3667 11.2933 13.2067L14.9667 11.3733C15.56 11.0733 15.8467 10.3867 15.6333 9.76L14.68 6.91333C14.5 6.36667 13.9867 6 13.4133 6H10.3733C10.1667 6 9.96 6.04667 9.78 6.14L9.23333 6.41333Z" fill="var(--fill-0, #ADADAD)"/>
</g>
</svg>
