<svg viewBox="0 0 10 14" fill="none" xmlns="http://www.w3.org/2000/svg">
<g id="Group">
<path id="Vector" d="M2.83333 5.49333V3C2.83333 2.08 3.58 1.33333 4.5 1.33333C5.42 1.33333 6.16667 2.08 6.16667 3V5.49333C6.97333 4.95333 7.5 4.04 7.5 3C7.5 1.34 6.16 0 4.5 0C2.84 0 1.5 1.34 1.5 3C1.5 4.04 2.02667 4.95333 2.83333 5.49333ZM9.39333 8.58L6.36667 7.07333C6.25333 7.02667 6.13333 7 6.00667 7H5.5V3C5.5 2.44667 5.05333 2 4.5 2C3.94667 2 3.5 2.44667 3.5 3V10.16C1.1 9.65333 1.14 9.66 1.05333 9.66C0.846667 9.66 0.66 9.74667 0.526667 9.88L0 10.4133L3.29333 13.7067C3.47333 13.8867 3.72667 14 4 14H8.52667C9.02667 14 9.41333 13.6333 9.48667 13.1467L9.98667 9.63333C9.99333 9.58667 10 9.54 10 9.5C10 9.08667 9.74667 8.72667 9.39333 8.58Z" fill="var(--fill-0, #ADADAD)"/>
</g>
</svg>
