<svg viewBox="0 0 16 16" fill="none" xmlns="http://www.w3.org/2000/svg">
<g id="icon / special / user" clip-path="url(#clip0_0_34)">
<g id="Union">
<mask id="path-1-outside-1_0_34" maskUnits="userSpaceOnUse" x="0.332357" y="-0.333008" width="16" height="17" fill="black">
<rect fill="white" x="0.332357" y="-0.333008" width="16" height="17"/>
<path d="M11.3324 10.667H12.6663V11.333H13.3324V12H13.9993V12.667H14.6663V14.667H13.9993V15.333H1.99935V14.667H1.33236V12.667H1.99935V12H2.66634V11.333H3.33236V10.667H4.66634V10H11.3324V10.667ZM9.33333 1.33398H10.6663V2H11.3333V3.33398H11.9993V6H11.3333V7.33398H10.6663V8H9.33333V8.66699H6.66634V8H5.33333V7.33398H4.66634V6H3.99935V3.33398H4.66634V2H5.33333V1.33398H6.66634V0.666992H9.33333V1.33398Z"/>
</mask>
<path d="M11.3324 10.667H12.6663V11.333H13.3324V12H13.9993V12.667H14.6663V14.667H13.9993V15.333H1.99935V14.667H1.33236V12.667H1.99935V12H2.66634V11.333H3.33236V10.667H4.66634V10H11.3324V10.667ZM9.33333 1.33398H10.6663V2H11.3333V3.33398H11.9993V6H11.3333V7.33398H10.6663V8H9.33333V8.66699H6.66634V8H5.33333V7.33398H4.66634V6H3.99935V3.33398H4.66634V2H5.33333V1.33398H6.66634V0.666992H9.33333V1.33398Z" fill="var(--fill-0, #EF9723)"/>
<path d="M11.3324 10.667H10.3324V11.667H11.3324V10.667ZM12.6663 10.667H13.6663V9.66699H12.6663V10.667ZM12.6663 11.333H11.6663V12.333H12.6663V11.333ZM13.3324 11.333H14.3324V10.333H13.3324V11.333ZM13.3324 12H12.3324V13H13.3324V12ZM13.9993 12H14.9993V11H13.9993V12ZM13.9993 12.667H12.9993V13.667H13.9993V12.667ZM14.6663 12.667H15.6663V11.667H14.6663V12.667ZM14.6663 14.667V15.667H15.6663V14.667H14.6663ZM13.9993 14.667V13.667H12.9993V14.667H13.9993ZM13.9993 15.333V16.333H14.9993V15.333H13.9993ZM1.99935 15.333H0.999349V16.333H1.99935V15.333ZM1.99935 14.667H2.99935V13.667H1.99935V14.667ZM1.33236 14.667H0.332357V15.667H1.33236V14.667ZM1.33236 12.667V11.667H0.332357V12.667H1.33236ZM1.99935 12.667V13.667H2.99935V12.667H1.99935ZM1.99935 12V11H0.999349V12H1.99935ZM2.66634 12V13H3.66634V12H2.66634ZM2.66634 11.333V10.333H1.66634V11.333H2.66634ZM3.33236 11.333V12.333H4.33236V11.333H3.33236ZM3.33236 10.667V9.66699H2.33236V10.667H3.33236ZM4.66634 10.667V11.667H5.66634V10.667H4.66634ZM4.66634 10V9H3.66634V10H4.66634ZM11.3324 10H12.3324V9H11.3324V10ZM9.33333 1.33398H8.33333V2.33398H9.33333V1.33398ZM10.6663 1.33398H11.6663V0.333984H10.6663V1.33398ZM10.6663 2H9.66634V3H10.6663V2ZM11.3333 2H12.3333V1H11.3333V2ZM11.3333 3.33398H10.3333V4.33398H11.3333V3.33398ZM11.9993 3.33398H12.9993V2.33398H11.9993V3.33398ZM11.9993 6V7H12.9993V6H11.9993ZM11.3333 6V5H10.3333V6H11.3333ZM11.3333 7.33398V8.33398H12.3333V7.33398H11.3333ZM10.6663 7.33398V6.33398H9.66634V7.33398H10.6663ZM10.6663 8V9H11.6663V8H10.6663ZM9.33333 8V7H8.33333V8H9.33333ZM9.33333 8.66699V9.66699H10.3333V8.66699H9.33333ZM6.66634 8.66699H5.66634V9.66699H6.66634V8.66699ZM6.66634 8H7.66634V7H6.66634V8ZM5.33333 8H4.33333V9H5.33333V8ZM5.33333 7.33398H6.33333V6.33398H5.33333V7.33398ZM4.66634 7.33398H3.66634V8.33398H4.66634V7.33398ZM4.66634 6H5.66634V5H4.66634V6ZM3.99935 6H2.99935V7H3.99935V6ZM3.99935 3.33398V2.33398H2.99935V3.33398H3.99935ZM4.66634 3.33398V4.33398H5.66634V3.33398H4.66634ZM4.66634 2V1H3.66634V2H4.66634ZM5.33333 2V3H6.33333V2H5.33333ZM5.33333 1.33398V0.333984H4.33333V1.33398H5.33333ZM6.66634 1.33398V2.33398H7.66634V1.33398H6.66634ZM6.66634 0.666992V-0.333008H5.66634V0.666992H6.66634ZM9.33333 0.666992H10.3333V-0.333008H9.33333V0.666992ZM11.3324 10.667V11.667H12.6663V10.667V9.66699H11.3324V10.667ZM12.6663 10.667H11.6663V11.333H12.6663H13.6663V10.667H12.6663ZM12.6663 11.333V12.333H13.3324V11.333V10.333H12.6663V11.333ZM13.3324 11.333H12.3324V12H13.3324H14.3324V11.333H13.3324ZM13.3324 12V13H13.9993V12V11H13.3324V12ZM13.9993 12H12.9993V12.667H13.9993H14.9993V12H13.9993ZM13.9993 12.667V13.667H14.6663V12.667V11.667H13.9993V12.667ZM14.6663 12.667H13.6663V14.667H14.6663H15.6663V12.667H14.6663ZM14.6663 14.667V13.667H13.9993V14.667V15.667H14.6663V14.667ZM13.9993 14.667H12.9993V15.333H13.9993H14.9993V14.667H13.9993ZM13.9993 15.333V14.333H1.99935V15.333V16.333H13.9993V15.333ZM1.99935 15.333H2.99935V14.667H1.99935H0.999349V15.333H1.99935ZM1.99935 14.667V13.667H1.33236V14.667V15.667H1.99935V14.667ZM1.33236 14.667H2.33236V12.667H1.33236H0.332357V14.667H1.33236ZM1.33236 12.667V13.667H1.99935V12.667V11.667H1.33236V12.667ZM1.99935 12.667H2.99935V12H1.99935H0.999349V12.667H1.99935ZM1.99935 12V13H2.66634V12V11H1.99935V12ZM2.66634 12H3.66634V11.333H2.66634H1.66634V12H2.66634ZM2.66634 11.333V12.333H3.33236V11.333V10.333H2.66634V11.333ZM3.33236 11.333H4.33236V10.667H3.33236H2.33236V11.333H3.33236ZM3.33236 10.667V11.667H4.66634V10.667V9.66699H3.33236V10.667ZM4.66634 10.667H5.66634V10H4.66634H3.66634V10.667H4.66634ZM4.66634 10V11H11.3324V10V9H4.66634V10ZM11.3324 10H10.3324V10.667H11.3324H12.3324V10H11.3324ZM9.33333 1.33398V2.33398H10.6663V1.33398V0.333984H9.33333V1.33398ZM10.6663 1.33398H9.66634V2H10.6663H11.6663V1.33398H10.6663ZM10.6663 2V3H11.3333V2V1H10.6663V2ZM11.3333 2H10.3333V3.33398H11.3333H12.3333V2H11.3333ZM11.3333 3.33398V4.33398H11.9993V3.33398V2.33398H11.3333V3.33398ZM11.9993 3.33398H10.9993V6H11.9993H12.9993V3.33398H11.9993ZM11.9993 6V5H11.3333V6V7H11.9993V6ZM11.3333 6H10.3333V7.33398H11.3333H12.3333V6H11.3333ZM11.3333 7.33398V6.33398H10.6663V7.33398V8.33398H11.3333V7.33398ZM10.6663 7.33398H9.66634V8H10.6663H11.6663V7.33398H10.6663ZM10.6663 8V7H9.33333V8V9H10.6663V8ZM9.33333 8H8.33333V8.66699H9.33333H10.3333V8H9.33333ZM9.33333 8.66699V7.66699H6.66634V8.66699V9.66699H9.33333V8.66699ZM6.66634 8.66699H7.66634V8H6.66634H5.66634V8.66699H6.66634ZM6.66634 8V7H5.33333V8V9H6.66634V8ZM5.33333 8H6.33333V7.33398H5.33333H4.33333V8H5.33333ZM5.33333 7.33398V6.33398H4.66634V7.33398V8.33398H5.33333V7.33398ZM4.66634 7.33398H5.66634V6H4.66634H3.66634V7.33398H4.66634ZM4.66634 6V5H3.99935V6V7H4.66634V6ZM3.99935 6H4.99935V3.33398H3.99935H2.99935V6H3.99935ZM3.99935 3.33398V4.33398H4.66634V3.33398V2.33398H3.99935V3.33398ZM4.66634 3.33398H5.66634V2H4.66634H3.66634V3.33398H4.66634ZM4.66634 2V3H5.33333V2V1H4.66634V2ZM5.33333 2H6.33333V1.33398H5.33333H4.33333V2H5.33333ZM5.33333 1.33398V2.33398H6.66634V1.33398V0.333984H5.33333V1.33398ZM6.66634 1.33398H7.66634V0.666992H6.66634H5.66634V1.33398H6.66634ZM6.66634 0.666992V1.66699H9.33333V0.666992V-0.333008H6.66634V0.666992ZM9.33333 0.666992H8.33333V1.33398H9.33333H10.3333V0.666992H9.33333Z" fill="var(--stroke-0, #212121)" mask="url(#path-1-outside-1_0_34)"/>
</g>
</g>
<defs>
<clipPath id="clip0_0_34">
<rect width="16" height="16" fill="white"/>
</clipPath>
</defs>
</svg>
