<svg viewBox="0 0 24 24" fill="none" xmlns="http://www.w3.org/2000/svg">
<g clip-path="url(#clip0_star)">
<path d="M13.5 0.5V1.5H14.5V3.5H15.5V5.5H16.5V7.5H23.5V10.5H22.5V11.5H21.5V12.5H20.5V13.5H19.5V14.5H18.5V18.5H19.5V23.5H16.5V22.5H14.5V21.5H12.5V20.5H11.5V21.5H9.5V22.5H7.5V23.5H4.5V18.5H5.5V14.5H4.5V13.5H3.5V12.5H2.5V11.5H1.5V10.5H0.5V7.5H7.5V5.5H8.5V3.5H9.5V1.5H10.5V0.5H13.5Z" fill="#EF9723" stroke="#212121"/>
</g>
<defs>
<clipPath id="clip0_star">
<rect width="24" height="24" fill="white"/>
</clipPath>
</defs>
</svg>
