<svg viewBox="0 0 16 16" fill="none" xmlns="http://www.w3.org/2000/svg">
<g id="icons / sort">
<path id="Vector" d="M13.3333 5.33333V6.66667H12.6667V7.33333H3.33333V6.66667H2.66667V5.33333H3.33333V4.66667H4V4H4.66667V3.33333H5.33333V2.66667H6V2H6.66667V1.33333H7.33333V0.666667H8.66667V1.33333H9.33333V2H10V2.66667H10.6667V3.33333H11.3333V4H12V4.66667H12.6667V5.33333H13.3333Z" fill="var(--fill-0, white)"/>
<path id="Vector_2" d="M13.3333 9.33333V10.6667H12.6667V11.3333H12V12H11.3333V12.6667H10.6667V13.3333H10V14H9.33333V14.6667H8.66667V15.3333H7.33333V14.6667H6.66667V14H6V13.3333H5.33333V12.6667H4.66667V12H4V11.3333H3.33333V10.6667H2.66667V9.33333H3.33333V8.66667H12.6667V9.33333H13.3333Z" fill="var(--fill-0, white)"/>
</g>
</svg>
