<svg viewBox="0 0 16 16" fill="none" xmlns="http://www.w3.org/2000/svg">
<g id="icons / chart-line">
<path id="Vector" d="M2.66602 11.333H15.333V13.333H1.33301V12.667H0.666016V2.66699H2.66602V11.333ZM14.667 8H14V7.33301H13.333V6.66699H12V7.33301H11.333V8H10.667V8.66699H10V9.33301H9.33301V10H8.66699V9.33301H8V8.66699H7.33301V8H6.66699V7.33301H6V8H5.33301V8.66699H4V7.33301H4.66699V6.66699H5.33301V6H6V5.33301H6.66699V6H7.33301V6.66699H8V7.33301H8.66699V8H9.33301V7.33301H10V6.66699H10.667V6H11.333V4.66699H10.667V4H10V3.33301H14.667V8Z" fill="var(--fill-0, #323232)"/>
</g>
</svg>
