<svg preserveAspectRatio="none" width="100%" height="100%" overflow="visible" style="display: block;" viewBox="0 0 10.6667 14.6667" fill="none" xmlns="http://www.w3.org/2000/svg">
<path id="Vector" d="M10 0V0.666667H9.33333V1.33333H8.66667V0.666667H8V0H6.66667V0.666667H6V1.33333H4.66667V0.666667H4V0H2.66667V0.666667H2V1.33333H1.33333V0.666667H0.666667V0H0V14.6667H0.666667V14H1.33333V13.3333H2V14H2.66667V14.6667H4V14H4.66667V13.3333H6V14H6.66667V14.6667H8V14H8.66667V13.3333H9.33333V14H10V14.6667H10.6667V0H10ZM9.33333 5.33333H1.33333V4H9.33333V5.33333ZM9.33333 8H1.33333V6.66667H9.33333V8ZM9.33333 10.6667H1.33333V9.33333H9.33333V10.6667Z" fill="var(--fill-0, #EF9723)"/>
</svg>
