<svg viewBox="0 0 16 16" fill="none" xmlns="http://www.w3.org/2000/svg">
<g id="icon / link" clip-path="url(#clip0_0_86)">
<g id="Vector">
<path d="M10 6H10.667V6.66699H11.333V11.333H10.667V12H10V12.667H9.33301V13.333H8.66699V14H8V14.667H7.33301V15.333H3.33301V14.667H2.66699V14H2V13.333H1.33301V12.667H0.666992V9.33301H1.33301V8.66699H2V8H2.66699V7.33301H3.33301V10H2.66699V12H3.33301V12.667H4V13.333H6V12.667H6.66699V12H7.33301V11.333H8V10.667H8.66699V10H9.33301V8H8.66699V7.33301H8V6.66699H8.66699V6H9.33301V5.33301H10V6Z" fill="var(--fill-0, #323232)"/>
<path d="M12.667 1.33301H13.333V2H14V2.66699H14.667V3.33301H15.333V6.66699H14.667V7.33301H14V8H13.333V8.66699H12.667V6H13.333V4H12.667V3.33301H12V2.66699H10V3.33301H9.33301V4H8.66699V4.66699H8V5.33301H7.33301V6H6.66699V8H7.33301V8.66699H8V9.33301H7.33301V10H6.66699V10.667H6V10H5.33301V9.33301H4.66699V4.66699H5.33301V4H6V3.33301H6.66699V2.66699H7.33301V2H8V1.33301H8.66699V0.666992H12.667V1.33301Z" fill="var(--fill-0, #323232)"/>
</g>
</g>
<defs>
<clipPath id="clip0_0_86">
<rect width="16" height="16" fill="white"/>
</clipPath>
</defs>
</svg>
