<svg viewBox="0 0 16 16" fill="none" xmlns="http://www.w3.org/2000/svg">
<g id="icons / bitcoin" clip-path="url(#clip0_0_99)">
<path id="Vector" d="M9.99902 0.666992V1.33301H11.333V2H12.666V2.66699H13.333V3.33301H13.999V4.66699H14.666V6H15.333V10H14.666V11.333H13.999V12.667H13.333V13.333H12.666V14H11.333V14.667H9.99902V15.333H5.99902V14.667H4.66602V14H3.33301V13.333H2.66602V12.667H1.99902V11.333H1.33301V10H0.666016V6H1.33301V4.66699H1.99902V3.33301H2.66602V2.66699H3.33301V2H4.66602V1.33301H5.99902V0.666992H9.99902ZM6.66602 3.33301V4.66699H4.66602V6H5.99902V10H4.66602V11.333H6.66602V12.667H7.33301V11.333H7.99902V12.667H8.66602V11.333H9.99902V10.667H10.666V10H11.333V8.66699H10.666V8H9.99902V7.33301H10.666V5.33301H9.99902V4.66699H8.66602V3.33301H7.99902V4.66699H7.33301V3.33301H6.66602ZM9.33398 10H7.33398V8H9.33398V10ZM9.33398 7.33301H7.33398V6H9.33398V7.33301Z" fill="var(--fill-0, white)"/>
</g>
<defs>
<clipPath id="clip0_0_99">
<rect width="16" height="16" fill="white"/>
</clipPath>
</defs>
</svg>
