<svg viewBox="0 0 16 16" fill="none" xmlns="http://www.w3.org/2000/svg">
<path d="M15.3333 5.33333V6H14.6667V6.66667H14V7.33333H13.3333V8H12.6667V8.66667H12V9.33333H11.3333V10H10.6667V10.6667H10V11.3333H9.33333V12H8.66667V12.6667H7.33333V12H6.66667V11.3333H6V10.6667H5.33333V10H4.66667V9.33333H4V8.66667H3.33333V8H2.66667V7.33333H2V6.66667H1.33333V6H0.666667V5.33333H1.33333V4.66667H2V4H2.66667V4.66667H3.33333V5.33333H4V6H4.66667V6.66667H5.33333V7.33333H6V8H6.66667V8.66667H7.33333V9.33333H8.66667V8.66667H9.33333V8H10V7.33333H10.6667V6.66667H11.3333V6H12V5.33333H12.6667V4.66667H13.3333V4H14V4.66667H14.6667V5.33333H15.3333Z" fill="white"/>
</svg>
