<svg viewBox="0 0 16 16" fill="none" xmlns="http://www.w3.org/2000/svg">
<g id="icons / user-minus">
<path id="Vector" d="M12.667 8H14V8.66699H14.667V10H15.333V12H14.667V13.333H14V14H12.667V14.667H10.667V14H9.33301V13.333H8.66699V12H8V10H8.66699V8.66699H9.33301V8H10.667V7.33301H12.667V8ZM7.33398 10H6.66699V12H7.33398V13.333H8V14H1.33398V13.333H0.666992V11.333H1.33398V10.667H2V10H2.66699V9.33301H7.33398V10ZM10 11.333H13.333V10.667H10V11.333ZM7.33398 2.66699H8V3.33301H8.66699V6.66699H8V7.33301H7.33398V8H4V7.33301H3.33398V6.66699H2.66699V3.33301H3.33398V2.66699H4V2H7.33398V2.66699Z" fill="var(--fill-0, #323232)"/>
</g>
</svg>
