<svg preserveAspectRatio="none" width="100%" height="100%" overflow="visible" style="display: block;" viewBox="0 0 16 16" fill="none" xmlns="http://www.w3.org/2000/svg">
<g id="life-hacking" clip-path="url(#clip0_0_143)">
<g id="Union">
<mask id="path-1-outside-1_0_143" maskUnits="userSpaceOnUse" x="2" y="0" width="13" height="17" fill="black">
<rect fill="white" x="2" width="13" height="17"/>
<path d="M10.3369 14.3359H9.66992V15.0029H9.00293V15.6699H7.66992V15.0029H7.00293V14.3359H6.33594V12.3359H10.3369V14.3359ZM9.66797 1.66699H11.002V2.33398H11.6689V3H12.3359V3.66699H13.002V5.00098H13.6689V7.66797H13.002V9.00195H12.3359V9.66895H11.6689V10.3359H11.002V11.002H10.335V11.6689H9.66797V8.33496H10.335V7.66797H11.002V7.00098H10.335V7.66797H9.66797V8.33496H9.00098V11.6689H7.66797V8.33496H7.00098V11.6689H6.33398V11.002H5.66699V10.3359H5V9.66895H4.33398V9.00195H3.66699V7.66797H3V5.00098H3.66699V3.66699H4.33398V3H5V2.33398H5.66699V1.66699H7.00098V1H9.66797V1.66699ZM6.33398 8.33496H7.00098V7.66797H6.33398V8.33496ZM5.66699 7.66797H6.33398V7.00098H5.66699V7.66797Z"/>
</mask>
<path d="M10.3369 14.3359H9.66992V15.0029H9.00293V15.6699H7.66992V15.0029H7.00293V14.3359H6.33594V12.3359H10.3369V14.3359ZM9.66797 1.66699H11.002V2.33398H11.6689V3H12.3359V3.66699H13.002V5.00098H13.6689V7.66797H13.002V9.00195H12.3359V9.66895H11.6689V10.3359H11.002V11.002H10.335V11.6689H9.66797V8.33496H10.335V7.66797H11.002V7.00098H10.335V7.66797H9.66797V8.33496H9.00098V11.6689H7.66797V8.33496H7.00098V11.6689H6.33398V11.002H5.66699V10.3359H5V9.66895H4.33398V9.00195H3.66699V7.66797H3V5.00098H3.66699V3.66699H4.33398V3H5V2.33398H5.66699V1.66699H7.00098V1H9.66797V1.66699ZM6.33398 8.33496H7.00098V7.66797H6.33398V8.33496ZM5.66699 7.66797H6.33398V7.00098H5.66699V7.66797Z" fill="var(--fill-0, #EF9723)"/>
<path d="M10.3369 14.3359V15.0026H11.0036V14.3359H10.3369ZM9.66992 14.3359V13.6693H9.00326V14.3359H9.66992ZM9.66992 15.0029V15.6696H10.3366V15.0029H9.66992ZM9.00293 15.0029V14.3363H8.33626V15.0029H9.00293ZM9.00293 15.6699V16.3366H9.6696V15.6699H9.00293ZM7.66992 15.6699H7.00326V16.3366H7.66992V15.6699ZM7.66992 15.0029H8.33659V14.3363H7.66992V15.0029ZM7.00293 15.0029H6.33626V15.6696H7.00293V15.0029ZM7.00293 14.3359H7.6696V13.6693H7.00293V14.3359ZM6.33594 14.3359H5.66927V15.0026H6.33594V14.3359ZM6.33594 12.3359V11.6693H5.66927V12.3359H6.33594ZM10.3369 12.3359H11.0036V11.6693H10.3369V12.3359ZM9.66797 1.66699H9.0013V2.33366H9.66797V1.66699ZM11.002 1.66699H11.6686V1.00033H11.002V1.66699ZM11.002 2.33398H10.3353V3.00065H11.002V2.33398ZM11.6689 2.33398H12.3356V1.66732H11.6689V2.33398ZM11.6689 3H11.0023V3.66667H11.6689V3ZM12.3359 3H13.0026V2.33333H12.3359V3ZM12.3359 3.66699H11.6693V4.33366H12.3359V3.66699ZM13.002 3.66699H13.6686V3.00033H13.002V3.66699ZM13.002 5.00098H12.3353V5.66764H13.002V5.00098ZM13.6689 5.00098H14.3356V4.33431H13.6689V5.00098ZM13.6689 7.66797V8.33464H14.3356V7.66797H13.6689ZM13.002 7.66797V7.0013H12.3353V7.66797H13.002ZM13.002 9.00195V9.66862H13.6686V9.00195H13.002ZM12.3359 9.00195V8.33529H11.6693V9.00195H12.3359ZM12.3359 9.66895V10.3356H13.0026V9.66895H12.3359ZM11.6689 9.66895V9.00228H11.0023V9.66895H11.6689ZM11.6689 10.3359V11.0026H12.3356V10.3359H11.6689ZM11.002 10.3359V9.66927H10.3353V10.3359H11.002ZM11.002 11.002V11.6686H11.6686V11.002H11.002ZM10.335 11.002V10.3353H9.66829V11.002H10.335ZM10.335 11.6689V12.3356H11.0016V11.6689H10.335ZM9.66797 11.6689H9.0013V12.3356H9.66797V11.6689ZM10.335 8.33496V9.00163H11.0016V8.33496H10.335ZM11.002 7.66797V8.33464H11.6686V7.66797H11.002ZM11.002 7.00098H11.6686V6.33431H11.002V7.00098ZM10.335 7.00098V6.33431H9.66829V7.00098H10.335ZM9.66797 7.66797V7.0013H9.0013V7.66797H9.66797ZM9.00098 8.33496V7.66829H8.33431V8.33496H9.00098ZM9.00098 11.6689V12.3356H9.66764V11.6689H9.00098ZM7.66797 11.6689H7.0013V12.3356H7.66797V11.6689ZM7.66797 8.33496H8.33464V7.66829H7.66797V8.33496ZM7.00098 11.6689V12.3356H7.66764V11.6689H7.00098ZM6.33398 11.6689H5.66732V12.3356H6.33398V11.6689ZM6.33398 11.002H7.00065V10.3353H6.33398V11.002ZM5.66699 11.002H5.00033V11.6686H5.66699V11.002ZM5.66699 10.3359H6.33366V9.66927H5.66699V10.3359ZM5 10.3359H4.33333V11.0026H5V10.3359ZM5 9.66895H5.66667V9.00228H5V9.66895ZM4.33398 9.66895H3.66732V10.3356H4.33398V9.66895ZM4.33398 9.00195H5.00065V8.33529H4.33398V9.00195ZM3.66699 9.00195H3.00033V9.66862H3.66699V9.00195ZM3.66699 7.66797H4.33366V7.0013H3.66699V7.66797ZM3 7.66797H2.33333V8.33464H3V7.66797ZM3 5.00098V4.33431H2.33333V5.00098H3ZM3.66699 5.00098V5.66764H4.33366V5.00098H3.66699ZM3.66699 3.66699V3.00033H3.00033V3.66699H3.66699ZM4.33398 3.66699V4.33366H5.00065V3.66699H4.33398ZM4.33398 3V2.33333H3.66732V3H4.33398ZM5 3V3.66667H5.66667V3H5ZM5 2.33398V1.66732H4.33333V2.33398H5ZM5.66699 2.33398V3.00065H6.33366V2.33398H5.66699ZM5.66699 1.66699V1.00033H5.00033V1.66699H5.66699ZM7.00098 1.66699V2.33366H7.66764V1.66699H7.00098ZM7.00098 1V0.333333H6.33431V1H7.00098ZM9.66797 1H10.3346V0.333333H9.66797V1ZM6.33398 8.33496H5.66732V9.00163H6.33398V8.33496ZM7.00098 7.66797H7.66764V7.0013H7.00098V7.66797ZM5.66699 7.66797H5.00033V8.33464H5.66699V7.66797ZM6.33398 7.00098H7.00065V6.33431H6.33398V7.00098ZM5.66699 7.00098V6.33431H5.00033V7.00098H5.66699ZM10.3369 14.3359V13.6693H9.66992V14.3359V15.0026H10.3369V14.3359ZM9.66992 14.3359H9.00326V15.0029H9.66992H10.3366V14.3359H9.66992ZM9.66992 15.0029V14.3363H9.00293V15.0029V15.6696H9.66992V15.0029ZM9.00293 15.0029H8.33626V15.6699H9.00293H9.6696V15.0029H9.00293ZM9.00293 15.6699V15.0033H7.66992V15.6699V16.3366H9.00293V15.6699ZM7.66992 15.6699H8.33659V15.0029H7.66992H7.00326V15.6699H7.66992ZM7.66992 15.0029V14.3363H7.00293V15.0029V15.6696H7.66992V15.0029ZM7.00293 15.0029H7.6696V14.3359H7.00293H6.33626V15.0029H7.00293ZM7.00293 14.3359V13.6693H6.33594V14.3359V15.0026H7.00293V14.3359ZM6.33594 14.3359H7.0026V12.3359H6.33594H5.66927V14.3359H6.33594ZM6.33594 12.3359V13.0026H10.3369V12.3359V11.6693H6.33594V12.3359ZM10.3369 12.3359H9.67025V14.3359H10.3369H11.0036V12.3359H10.3369ZM9.66797 1.66699V2.33366H11.002V1.66699V1.00033H9.66797V1.66699ZM11.002 1.66699H10.3353V2.33398H11.002H11.6686V1.66699H11.002ZM11.002 2.33398V3.00065H11.6689V2.33398V1.66732H11.002V2.33398ZM11.6689 2.33398H11.0023V3H11.6689H12.3356V2.33398H11.6689ZM11.6689 3V3.66667H12.3359V3V2.33333H11.6689V3ZM12.3359 3H11.6693V3.66699H12.3359H13.0026V3H12.3359ZM12.3359 3.66699V4.33366H13.002V3.66699V3.00033H12.3359V3.66699ZM13.002 3.66699H12.3353V5.00098H13.002H13.6686V3.66699H13.002ZM13.002 5.00098V5.66764H13.6689V5.00098V4.33431H13.002V5.00098ZM13.6689 5.00098H13.0023V7.66797H13.6689H14.3356V5.00098H13.6689ZM13.6689 7.66797V7.0013H13.002V7.66797V8.33464H13.6689V7.66797ZM13.002 7.66797H12.3353V9.00195H13.002H13.6686V7.66797H13.002ZM13.002 9.00195V8.33529H12.3359V9.00195V9.66862H13.002V9.00195ZM12.3359 9.00195H11.6693V9.66895H12.3359H13.0026V9.00195H12.3359ZM12.3359 9.66895V9.00228H11.6689V9.66895V10.3356H12.3359V9.66895ZM11.6689 9.66895H11.0023V10.3359H11.6689H12.3356V9.66895H11.6689ZM11.6689 10.3359V9.66927H11.002V10.3359V11.0026H11.6689V10.3359ZM11.002 10.3359H10.3353V11.002H11.002H11.6686V10.3359H11.002ZM11.002 11.002V10.3353H10.335V11.002V11.6686H11.002V11.002ZM10.335 11.002H9.66829V11.6689H10.335H11.0016V11.002H10.335ZM10.335 11.6689V11.0023H9.66797V11.6689V12.3356H10.335V11.6689ZM9.66797 11.6689H10.3346V8.33496H9.66797H9.0013V11.6689H9.66797ZM9.66797 8.33496V9.00163H10.335V8.33496V7.66829H9.66797V8.33496ZM10.335 8.33496H11.0016V7.66797H10.335H9.66829V8.33496H10.335ZM10.335 7.66797V8.33464H11.002V7.66797V7.0013H10.335V7.66797ZM11.002 7.66797H11.6686V7.00098H11.002H10.3353V7.66797H11.002ZM11.002 7.00098V6.33431H10.335V7.00098V7.66764H11.002V7.00098ZM10.335 7.00098H9.66829V7.66797H10.335H11.0016V7.00098H10.335ZM10.335 7.66797V7.0013H9.66797V7.66797V8.33464H10.335V7.66797ZM9.66797 7.66797H9.0013V8.33496H9.66797H10.3346V7.66797H9.66797ZM9.66797 8.33496V7.66829H9.00098V8.33496V9.00163H9.66797V8.33496ZM9.00098 8.33496H8.33431V11.6689H9.00098H9.66764V8.33496H9.00098ZM9.00098 11.6689V11.0023H7.66797V11.6689V12.3356H9.00098V11.6689ZM7.66797 11.6689H8.33464V8.33496H7.66797H7.0013V11.6689H7.66797ZM7.66797 8.33496V7.66829H7.00098V8.33496V9.00163H7.66797V8.33496ZM7.00098 8.33496H6.33431V11.6689H7.00098H7.66764V8.33496H7.00098ZM7.00098 11.6689V11.0023H6.33398V11.6689V12.3356H7.00098V11.6689ZM6.33398 11.6689H7.00065V11.002H6.33398H5.66732V11.6689H6.33398ZM6.33398 11.002V10.3353H5.66699V11.002V11.6686H6.33398V11.002ZM5.66699 11.002H6.33366V10.3359H5.66699H5.00033V11.002H5.66699ZM5.66699 10.3359V9.66927H5V10.3359V11.0026H5.66699V10.3359ZM5 10.3359H5.66667V9.66895H5H4.33333V10.3359H5ZM5 9.66895V9.00228H4.33398V9.66895V10.3356H5V9.66895ZM4.33398 9.66895H5.00065V9.00195H4.33398H3.66732V9.66895H4.33398ZM4.33398 9.00195V8.33529H3.66699V9.00195V9.66862H4.33398V9.00195ZM3.66699 9.00195H4.33366V7.66797H3.66699H3.00033V9.00195H3.66699ZM3.66699 7.66797V7.0013H3V7.66797V8.33464H3.66699V7.66797ZM3 7.66797H3.66667V5.00098H3H2.33333V7.66797H3ZM3 5.00098V5.66764H3.66699V5.00098V4.33431H3V5.00098ZM3.66699 5.00098H4.33366V3.66699H3.66699H3.00033V5.00098H3.66699ZM3.66699 3.66699V4.33366H4.33398V3.66699V3.00033H3.66699V3.66699ZM4.33398 3.66699H5.00065V3H4.33398H3.66732V3.66699H4.33398ZM4.33398 3V3.66667H5V3V2.33333H4.33398V3ZM5 3H5.66667V2.33398H5H4.33333V3H5ZM5 2.33398V3.00065H5.66699V2.33398V1.66732H5V2.33398ZM5.66699 2.33398H6.33366V1.66699H5.66699H5.00033V2.33398H5.66699ZM5.66699 1.66699V2.33366H7.00098V1.66699V1.00033H5.66699V1.66699ZM7.00098 1.66699H7.66764V1H7.00098H6.33431V1.66699H7.00098ZM7.00098 1V1.66667H9.66797V1V0.333333H7.00098V1ZM9.66797 1H9.0013V1.66699H9.66797H10.3346V1H9.66797ZM6.33398 8.33496V9.00163H7.00098V8.33496V7.66829H6.33398V8.33496ZM7.00098 8.33496H7.66764V7.66797H7.00098H6.33431V8.33496H7.00098ZM7.00098 7.66797V7.0013H6.33398V7.66797V8.33464H7.00098V7.66797ZM6.33398 7.66797H5.66732V8.33496H6.33398H7.00065V7.66797H6.33398ZM5.66699 7.66797V8.33464H6.33398V7.66797V7.0013H5.66699V7.66797ZM6.33398 7.66797H7.00065V7.00098H6.33398H5.66732V7.66797H6.33398ZM6.33398 7.00098V6.33431H5.66699V7.00098V7.66764H6.33398V7.00098ZM5.66699 7.00098H5.00033V7.66797H5.66699H6.33366V7.00098H5.66699Z" fill="var(--stroke-0, #212121)" mask="url(#path-1-outside-1_0_143)"/>
</g>
</g>
<defs>
<clipPath id="clip0_0_143">
<rect width="16" height="16" fill="white"/>
</clipPath>
</defs>
</svg>
