<svg viewBox="0 0 16 16" fill="none" xmlns="http://www.w3.org/2000/svg">
<g id="icon / times / gray">
<path id="Vector" d="M10 8.66667H10.6667V9.33333H11.3333V10H12V10.6667H12.6667V11.3333H13.3333V12H14V12.6667H14.6667V13.3333H14V14H13.3333V14.6667H12.6667V14H12V13.3333H11.3333V12.6667H10.6667V12H10V11.3333H9.33333V10.6667H8.66667V10H7.33333V10.6667H6.66667V11.3333H6V12H5.33333V12.6667H4.66667V13.3333H4V14H3.33333V14.6667H2.66667V14H2V13.3333H1.33333V12.6667H2V12H2.66667V11.3333H3.33333V10.6667H4V10H4.66667V9.33333H5.33333V8.66667H6V7.33333H5.33333V6.66667H4.66667V6H4V5.33333H3.33333V4.66667H2.66667V4H2V3.33333H1.33333V2.66667H2V2H2.66667V1.33333H3.33333V2H4V2.66667H4.66667V3.33333H5.33333V4H6V4.66667H6.66667V5.33333H7.33333V6H8.66667V5.33333H9.33333V4.66667H10V4H10.6667V3.33333H11.3333V2.66667H12V2H12.6667V1.33333H13.3333V2H14V2.66667H14.6667V3.33333H14V4H13.3333V4.66667H12.6667V5.33333H12V6H11.3333V6.66667H10.6667V7.33333H10V8.66667Z" fill="#ADADAD"/>
</g>
</svg>
