<svg viewBox="0 0 14.6667 14.6667" fill="none" xmlns="http://www.w3.org/2000/svg">
<path d="M14 5.33333V4H13.3333V2.66667H12.6667V2H12V1.33333H10.6667V0.666667H9.33333V0H5.33333V0.666667H4V1.33333H2.66667V2H2V2.66667H1.33333V4H0.666667V5.33333H0V9.33333H0.666667V10.6667H1.33333V12H2V12.6667H2.66667V13.3333H4V14H5.33333V14.6667H9.33333V14H10.6667V13.3333H12V12.6667H12.6667V12H13.3333V10.6667H14V9.33333H14.6667V5.33333H14ZM8 10V9.33333H7.33333V8.66667H6.66667V2.66667H8V8H8.66667V8.66667H9.33333V9.33333H10V10H9.33333V10.6667H8.66667V10H8Z" fill="#323232"/>
</svg>
