<svg viewBox="0 0 16 16" fill="none" xmlns="http://www.w3.org/2000/svg">
<g id="icons / info-circle" clip-path="url(#clip0_0_53)">
<path id="Vector" d="M14.666 5.99984V4.6665H13.9993V3.33317H13.3327V2.6665H12.666V1.99984H11.3327V1.33317H9.99935V0.666504H5.99935V1.33317H4.66602V1.99984H3.33268V2.6665H2.66602V3.33317H1.99935V4.6665H1.33268V5.99984H0.666016V9.99984H1.33268V11.3332H1.99935V12.6665H2.66602V13.3332H3.33268V13.9998H4.66602V14.6665H5.99935V15.3332H9.99935V14.6665H11.3327V13.9998H12.666V13.3332H13.3327V12.6665H13.9993V11.3332H14.666V9.99984H15.3327V5.99984H14.666ZM7.33268 3.99984H8.66602V5.33317H7.33268V3.99984ZM6.66602 9.99984H7.33268V6.6665H6.66602V5.99984H8.66602V9.99984H9.33268V11.3332H6.66602V9.99984Z" fill="var(--fill-0, white)"/>
</g>
<defs>
<clipPath id="clip0_0_53">
<rect width="16" height="16" fill="white"/>
</clipPath>
</defs>
</svg>
