<svg viewBox="0 0 200 200" fill="none" xmlns="http://www.w3.org/2000/svg">
<g id="progress">
<path id="Ellipse 74" d="M100 0C123.353 2.78474e-07 145.969 8.17275 163.926 23.101C181.884 38.0293 194.051 58.7715 198.317 81.7309C202.584 104.69 198.68 128.419 187.284 148.801C175.887 169.184 157.717 184.936 135.924 193.325C114.13 201.714 90.0877 202.211 67.966 194.73C45.8443 187.249 27.0382 172.263 14.8089 152.368C2.57967 132.474 -2.30148 108.927 1.01192 85.8113C4.32531 62.6952 15.6243 41.4676 32.9495 25.8097L36.302 29.5192C19.8431 44.3942 9.10906 64.5604 5.96133 86.5207C2.8136 108.481 7.45069 130.85 19.0685 149.75C30.6863 168.649 48.5521 182.887 69.5677 189.994C90.5834 197.1 113.423 196.628 134.127 188.659C154.831 180.689 172.093 165.725 182.92 146.361C193.746 126.998 197.454 104.456 193.401 82.6443C189.348 60.8329 177.79 41.1278 160.73 26.946C143.67 12.7641 122.185 5 100 5L100 0Z" fill="var(--fill-0, white)"/>
<path id="Ellipse 76" d="M200 100C200 155.228 155.229 200 100 200C44.7717 200 0.000200911 155.228 0.000200911 100C0.000200911 44.7715 44.7717 0 100 0C155.229 0 200 44.7715 200 100ZM5.0002 100C5.0002 152.467 47.5331 195 100 195C152.467 195 195 152.467 195 100C195 47.5329 152.467 5 100 5C47.5331 5 5.0002 47.5329 5.0002 100Z" fill="var(--fill-0, white)" fill-opacity="0.1"/>
<path id="Ellipse 75" d="M34.2304 24.6718C47.2956 13.2645 63.1031 5.45146 80.1005 1.99999L81.0955 6.89999C64.9479 10.1789 49.9308 17.6013 37.5189 28.4382L34.2304 24.6718Z" fill="var(--fill-0, #EF9723)"/>
</g>
</svg>
